<svg xmlns="http://www.w3.org/2000/svg" height="20px" viewBox="0 -960 960 960" width="20px" fill="#303247"><path d="M353.5-548.5Q302-600 302-675t51.5-126Q405-852 480-852t126.5 51Q658-750 658-675t-51.5 126.5Q555-497 480-497t-126.5-51.5ZM158-141v-132q0-32.3 17.7-60.6 17.69-28.3 48.3-46.4 58-33 123.25-51t132.54-18q69.21 0 134.71 17.5Q680-414 736-381q30.61 16.96 48.3 45.48Q802-307 802-273.05V-141H158Zm118-118h408v-9q0-4.21-3.03-7.65-3.02-3.44-7.97-5.35-40-24-89-37t-104-13q-53 0-104 13t-89 37q-5 3.56-8 6.49t-3 6.51v9Zm246.5-373.68q17.5-17.67 17.5-42.5Q540-700 522.32-717q-17.67-17-42.5-17-24.82 0-42.32 17.21T420-674.75q0 24.82 17.68 42.29Q455.35-615 480.18-615q24.82 0 42.32-17.68ZM480-675Zm0 416Z"/></svg>